<svg xmlns="http://www.w3.org/2000/svg" xmlns:xlink="http://www.w3.org/1999/xlink" viewBox="0 0 64 64"><defs><style>.cls-1{fill:url(#linear-gradient);}.cls-2{fill:#c7cdd8;}.cls-3{fill:url(#linear-gradient-2);}.cls-4{fill:url(#linear-gradient-3);}.cls-5{fill:#42455e;}.cls-6{fill:url(#linear-gradient-4);}.cls-7{fill:#5b8dc9;}.cls-8{fill:url(#linear-gradient-5);}.cls-9{fill:url(#linear-gradient-6);}.cls-10{fill:url(#linear-gradient-7);}.cls-11{fill:url(#linear-gradient-8);}</style><linearGradient id="linear-gradient" x1="32" y1="59" x2="32" y2="5" gradientUnits="userSpaceOnUse"><stop offset="0" stop-color="#d4d8e1"/><stop offset="1" stop-color="#f3f4f5"/></linearGradient><linearGradient id="linear-gradient-2" x1="32" y1="13" x2="32" y2="5" gradientUnits="userSpaceOnUse"><stop offset="0" stop-color="#a0a6ba"/><stop offset="1" stop-color="#c6ccda"/></linearGradient><linearGradient id="linear-gradient-3" x1="48.5" y1="59" x2="48.5" y2="13" gradientUnits="userSpaceOnUse"><stop offset="0" stop-color="#474f72"/><stop offset="1" stop-color="#878c9f"/></linearGradient><linearGradient id="linear-gradient-4" x1="17.5" y1="27" x2="17.5" y2="18" gradientTransform="translate(35 45) rotate(-180)" gradientUnits="userSpaceOnUse"><stop offset="0" stop-color="#7aa8d7"/><stop offset="1" stop-color="#c3d2e7"/></linearGradient><linearGradient id="linear-gradient-5" x1="26.5" y1="37" x2="26.5" y2="32" gradientTransform="matrix(1, 0, 0, 1, 0, 0)" xlink:href="#linear-gradient-4"/><linearGradient id="linear-gradient-6" x1="17.5" y1="37" x2="17.5" y2="32" gradientTransform="matrix(1, 0, 0, 1, 0, 0)" xlink:href="#linear-gradient-4"/><linearGradient id="linear-gradient-7" x1="8.5" y1="37" x2="8.5" y2="32" gradientTransform="matrix(1, 0, 0, 1, 0, 0)" xlink:href="#linear-gradient-4"/><linearGradient id="linear-gradient-8" x1="6" y1="52" x2="29" y2="52" xlink:href="#linear-gradient-2"/></defs><title>Development</title><g id="Development"><path class="cls-1" d="M63,59V5H1V59Z"/><path class="cls-2" d="M63,59V57H1v2Z"/><rect class="cls-3" x="1" y="5" width="62" height="8"/><rect class="cls-4" x="34" y="13" width="29" height="46"/><rect class="cls-5" x="35" y="57" width="28" height="2"/><rect class="cls-6" x="6" y="18" width="23" height="9" transform="translate(35 45) rotate(180)"/><rect class="cls-7" x="6" y="25" width="23" height="2" transform="translate(35 52) rotate(180)"/><circle class="cls-8" cx="26.5" cy="34.5" r="2.5"/><circle class="cls-9" cx="17.5" cy="34.5" r="2.5"/><circle class="cls-10" cx="8.5" cy="34.5" r="2.5"/><rect class="cls-11" x="6" y="50" width="23" height="4"/><path d="M63,4H35V1a1,1,0,0,0-2,0V4H1A1,1,0,0,0,0,5V59a1,1,0,0,0,1,1H33v3a1,1,0,0,0,2,0V60H63a1,1,0,0,0,1-1V5A1,1,0,0,0,63,4ZM62,6v6H35V6ZM2,6H33v6H2ZM2,58V14H33V58Zm33,0V14H62V58Z"/><path d="M6,8a1,1,0,0,0,0,2A1,1,0,0,0,6,8Z"/><path d="M11,8a1,1,0,0,0,0,2A1,1,0,0,0,11,8Z"/><path d="M16,8a1,1,0,0,0,0,2A1,1,0,0,0,16,8Z"/><path d="M29,17H6a1,1,0,0,0-1,1v9a1,1,0,0,0,1,1H29a1,1,0,0,0,1-1V18A1,1,0,0,0,29,17Zm-1,9H7V19H28Z"/><path d="M26.5,31A3.5,3.5,0,1,0,30,34.5,3.5,3.5,0,0,0,26.5,31Zm0,5a1.5,1.5,0,0,1,0-3A1.5,1.5,0,0,1,26.5,36Z"/><path d="M17.5,38A3.5,3.5,0,1,0,14,34.5,3.5,3.5,0,0,0,17.5,38Zm0-5a1.5,1.5,0,0,1,0,3A1.5,1.5,0,0,1,17.5,33Z"/><path d="M8.5,38A3.5,3.5,0,1,0,5,34.5,3.5,3.5,0,0,0,8.5,38Zm0-5a1.5,1.5,0,0,1,0,3A1.5,1.5,0,0,1,8.5,33Z"/><path d="M29,40H24a1,1,0,0,0,0,2h5A1,1,0,0,0,29,40Z"/><path d="M29,44H24a1,1,0,0,0,0,2h5A1,1,0,0,0,29,44Z"/><path d="M15,42h5a1,1,0,0,0,0-2H15A1,1,0,0,0,15,42Z"/><path d="M15,46h5a1,1,0,0,0,0-2H15A1,1,0,0,0,15,46Z"/><path d="M6,42h5a1,1,0,0,0,0-2H6A1,1,0,0,0,6,42Z"/><path d="M6,46h5a1,1,0,0,0,0-2H6A1,1,0,0,0,6,46Z"/><path d="M29,49H6a1,1,0,0,0-1,1v4a1,1,0,0,0,1,1H29a1,1,0,0,0,1-1V50A1,1,0,0,0,29,49Zm-1,4H7V51H28Z"/><path d="M41.29,26.71a1,1,0,0,0,1.42-1.42L39.41,22l3.3-3.29a1,1,0,0,0-1.42-1.42l-4,4a1,1,0,0,0,0,1.42Z"/><path d="M55.71,17.29a1,1,0,0,0-1.42,1.42L57.59,22l-3.3,3.29A1,1,0,0,0,55,27c.56,0,.3.12,4.71-4.29a1,1,0,0,0,0-1.42Z"/><path d="M46.85,26.53l5-8a1,1,0,0,0-1.7-1.06l-5,8A1,1,0,0,0,46.85,26.53Z"/><path d="M59,31H38a1,1,0,0,0,0,2H59A1,1,0,0,0,59,31Z"/><path d="M38,38H52a1,1,0,0,0,0-2H38A1,1,0,0,0,38,38Z"/><path d="M38,43H56a1,1,0,0,0,0-2H38A1,1,0,0,0,38,43Z"/><path d="M59,46H38a1,1,0,0,0,0,2H59A1,1,0,0,0,59,46Z"/><path d="M54,51H38a1,1,0,0,0,0,2H54A1,1,0,0,0,54,51Z"/></g></svg>