<svg xmlns="http://www.w3.org/2000/svg" xmlns:xlink="http://www.w3.org/1999/xlink" viewBox="0 0 128 128"><defs><style>.cls-1{fill:url(#linear-gradient);}.cls-2{fill:#8cdd79;}.cls-3{fill:url(#linear-gradient-2);}.cls-4{fill:url(#linear-gradient-3);}.cls-5{fill:url(#linear-gradient-4);}.cls-6{fill:#7ece67;}.cls-7{fill:url(#linear-gradient-5);}.cls-8{fill:#5b8dc9;}.cls-9{fill:url(#linear-gradient-6);}.cls-10{fill:#d4d8e1;}.cls-11{fill:#47566a;}</style><linearGradient id="linear-gradient" x1="19.29" y1="124.97" x2="19.29" y2="49.77" gradientUnits="userSpaceOnUse"><stop offset="0" stop-color="#8cdd79"/><stop offset="1" stop-color="#d4e6b6"/></linearGradient><linearGradient id="linear-gradient-2" x1="47.77" y1="127" x2="47.77" y2="49.77" xlink:href="#linear-gradient"/><linearGradient id="linear-gradient-3" x1="108.71" y1="124.97" x2="108.71" y2="49.77" xlink:href="#linear-gradient"/><linearGradient id="linear-gradient-4" x1="80.23" y1="127" x2="80.23" y2="49.77" xlink:href="#linear-gradient"/><linearGradient id="linear-gradient-5" x1="64" y1="74.16" x2="64" y2="1" gradientUnits="userSpaceOnUse"><stop offset="0" stop-color="#7aa8d7"/><stop offset="1" stop-color="#96c8ea"/></linearGradient><linearGradient id="linear-gradient-6" x1="64" y1="39.61" x2="64" y2="15.23" gradientUnits="userSpaceOnUse"><stop offset="0" stop-color="#d4d8e1"/><stop offset="1" stop-color="#f3f4f5"/></linearGradient></defs><title>Map</title><g id="Map"><path class="cls-1" d="M37.58,49.77c-.38,3.8-5.85,58.49-6,60.34L1,125c1.32-9.86-.06.51,8.13-61,27.94-14,27.8-13.81,27.8-13.91Z"/><path class="cls-2" d="M64,74.16V127L31.54,110.11c.56-5.51-.7,7.06,6-60.34l9.15,3.52Z"/><path class="cls-2" d="M127,125,96.46,110.11c-.77-7.61,1,10.46-6-60.34L118.87,64C127.22,126.68,125.8,116,127,125Z"/><path class="cls-2" d="M96.46,110.11,64,127V74.16L81.27,53.29l9.15-3.52C90.84,54,96.26,108.15,96.46,110.11Z"/><path class="cls-3" d="M64,74.16V127L31.54,110.11c.56-5.51-.7,7.06,6-60.34l9.15,3.52Z"/><path class="cls-4" d="M127,125,96.46,110.11c-.77-7.61,1,10.46-6-60.34L118.87,64C127.22,126.68,125.8,116,127,125Z"/><path class="cls-5" d="M96.46,110.11,64,127V74.16L81.27,53.29l9.15-3.52C90.84,54,96.26,108.15,96.46,110.11Z"/><path class="cls-6" d="M37.58,49.77c-.38,3.8-5.85,58.49-6,60.34L1,125l.88-6.57c31.43-14.67,29-13.52,29.6-13.82.24-2.51,5.45-54.39,5.45-54.49Z"/><path class="cls-6" d="M64,120.84V127L31.54,110.11l.59-5.85Z"/><path class="cls-6" d="M127,125,96.46,110.11c-.77-7.61,1,10.46-6-60.34l.65.32c0,.1,0-.41,5.39,53.86.09,1-3.28-.93,29.66,14.45Z"/><path class="cls-6" d="M96.46,110.11,64,127v-6.16l31.87-16.58Z"/><path class="cls-6" d="M37.58,49.77l-5.45,54.48-.59-.3c5.76-57.55,5.39-53.76,5.39-53.86Z"/><path class="cls-6" d="M96.46,104l-.59.3L90.42,49.77l.65.32C91.07,50.19,91,49.68,96.46,104Z"/><path class="cls-7" d="M90.42,27.42C90.42,49.77,64,74.16,64,74.16S37.58,49.77,37.58,27.42a26.42,26.42,0,0,1,52.84,0Z"/><path class="cls-8" d="M87.38,41.6C80.44,59,64,74.16,64,74.16S47.56,59,40.62,41.6A102.63,102.63,0,0,0,55,59.75a12.6,12.6,0,0,0,18,0A102.63,102.63,0,0,0,87.38,41.6Z"/><circle class="cls-9" cx="64" cy="27.42" r="12.19"/><path class="cls-10" d="M76,29.42a12.18,12.18,0,0,0-24,0,12.19,12.19,0,1,1,24,0Z"/><path class="cls-11" d="M119.86,63.87c-.1-.79,1.6.31-29-15-.56-.28-.68-.09-7.16,2.4,4.34-7.37,7.71-15.7,7.71-23.86a27.42,27.42,0,0,0-54.84,0c0,8.16,3.37,16.49,7.71,23.86-6.6-2.53-6.62-2.67-7.16-2.4-30.86,15.43-28.89,14.23-29,15C-.51,128.74-.33,125.24.41,125.77a1,1,0,0,0,1,.1c32.73-15.27,30.52-14.22,30.68-14.34,33.13,17.24,31.39,16.34,31.57,16.41.64.22-1.3,1,32.23-16.41.16.12-1.81-.82,30.68,14.34a1,1,0,0,0,1-.1C128.33,125.23,128.51,128.7,119.86,63.87ZM64,2A25.44,25.44,0,0,1,89.42,27.42c0,19.67-21.31,41.36-25.42,45.36-4.11-4-25.42-25.69-25.42-45.36A25.44,25.44,0,0,1,64,2ZM63,74.59v50.76L32.61,109.54l5.84-58.36L46,54.08A118.15,118.15,0,0,0,63,74.59ZM2.23,123.29l7.82-58.63L36.4,51.48c0,.18-5.84,58.46-5.85,58.6ZM65,74.59A118.15,118.15,0,0,0,82,54.08l7.56-2.9,5.84,58.36L65,125.35Zm32.45,35.49c0-.14-5.84-58.48-5.85-58.6L118,64.66l7.82,58.63Z"/><path class="cls-11" d="M77.19,27.42A13.19,13.19,0,1,0,64,40.61,13.2,13.2,0,0,0,77.19,27.42Zm-24.38,0A11.19,11.19,0,1,1,64,38.61,11.2,11.2,0,0,1,52.81,27.42Z"/></g></svg>