<svg xmlns="http://www.w3.org/2000/svg" xmlns:xlink="http://www.w3.org/1999/xlink" viewBox="0 0 64 64"><defs><style>.cls-1{fill:url(#linear-gradient);}.cls-2{fill:url(#linear-gradient-2);}.cls-3{fill:url(#linear-gradient-3);}.cls-4{fill:url(#linear-gradient-4);}.cls-5{fill:#fff;}.cls-6{fill:#cf4055;}.cls-7{fill:#f6b756;}.cls-8{fill:#7ece67;}.cls-9{fill:#5b8dc9;}</style><linearGradient id="linear-gradient" x1="15" y1="29" x2="15" y2="1" gradientUnits="userSpaceOnUse"><stop offset="0" stop-color="#da5466"/><stop offset="1" stop-color="#f4929c"/></linearGradient><linearGradient id="linear-gradient-2" x1="49" y1="29" x2="49" y2="1" gradientUnits="userSpaceOnUse"><stop offset="0" stop-color="#fbcc88"/><stop offset="1" stop-color="#ffe5c3"/></linearGradient><linearGradient id="linear-gradient-3" x1="15" y1="63" x2="15" y2="35" gradientUnits="userSpaceOnUse"><stop offset="0" stop-color="#8cdd79"/><stop offset="1" stop-color="#d4e6b6"/></linearGradient><linearGradient id="linear-gradient-4" x1="49" y1="63" x2="49" y2="35" gradientUnits="userSpaceOnUse"><stop offset="0" stop-color="#7aa8d7"/><stop offset="1" stop-color="#c3d2e7"/></linearGradient></defs><title>Math</title><g id="Math"><rect class="cls-1" x="1" y="1" width="28" height="28" rx="8"/><rect class="cls-2" x="35" y="1" width="28" height="28" rx="8"/><rect class="cls-3" x="1" y="35" width="28" height="28" rx="8"/><rect class="cls-4" x="35" y="35" width="28" height="28" rx="8"/><polygon class="cls-5" points="24 13 17 13 17 6 13 6 13 13 6 13 6 17 13 17 13 24 17 24 17 17 24 17 24 13"/><rect class="cls-5" x="13" y="40" width="4" height="18" transform="translate(64 34) rotate(90)"/><polygon class="cls-5" points="57.41 43.41 54.59 40.59 49 46.17 43.41 40.59 40.59 43.41 46.17 49 40.59 54.59 43.41 57.41 49 51.83 54.59 57.41 57.41 54.59 51.83 49 57.41 43.41"/><rect class="cls-5" x="47" y="6" width="4" height="18" transform="translate(64 -34) rotate(90)"/><circle class="cls-5" cx="15" cy="42" r="2"/><circle class="cls-5" cx="15" cy="56" r="2"/><path class="cls-6" d="M29,18v3a8,8,0,0,1-8,8H9a8,8,0,0,1-8-8V18a8,8,0,0,0,8,8H21A8,8,0,0,0,29,18Z"/><path class="cls-7" d="M63,18v3a8,8,0,0,1-8,8H43a8,8,0,0,1-8-8V18a8,8,0,0,0,8,8H55A8,8,0,0,0,63,18Z"/><path class="cls-8" d="M29,52v3a8,8,0,0,1-8,8H9a8,8,0,0,1-8-8V52a8,8,0,0,0,8,8H21A8,8,0,0,0,29,52Z"/><path class="cls-9" d="M63,52v3a8,8,0,0,1-8,8H43a8,8,0,0,1-8-8V52a8,8,0,0,0,8,8H55A8,8,0,0,0,63,52Z"/><path d="M21,0H9A9,9,0,0,0,0,9V21a9,9,0,0,0,9,9H21a9,9,0,0,0,9-9V9A9,9,0,0,0,21,0Zm7,21a7,7,0,0,1-7,7H9a7,7,0,0,1-7-7V9A7,7,0,0,1,9,2H21a7,7,0,0,1,7,7Z"/><path d="M55,0H43a9,9,0,0,0-9,9V21a9,9,0,0,0,9,9H55a9,9,0,0,0,9-9V9A9,9,0,0,0,55,0Zm7,21a7,7,0,0,1-7,7H43a7,7,0,0,1-7-7V9a7,7,0,0,1,7-7H55a7,7,0,0,1,7,7Z"/><path d="M21,34H9a9,9,0,0,0-9,9V55a9,9,0,0,0,9,9H21a9,9,0,0,0,9-9V43A9,9,0,0,0,21,34Zm7,21a7,7,0,0,1-7,7H9a7,7,0,0,1-7-7V43a7,7,0,0,1,7-7H21a7,7,0,0,1,7,7Z"/><path d="M55,34H43a9,9,0,0,0-9,9V55a9,9,0,0,0,9,9H55a9,9,0,0,0,9-9V43A9,9,0,0,0,55,34Zm7,21a7,7,0,0,1-7,7H43a7,7,0,0,1-7-7V43a7,7,0,0,1,7-7H55a7,7,0,0,1,7,7Z"/><path d="M24,12H18V6a1,1,0,0,0-1-1H13a1,1,0,0,0-1,1v6H6a1,1,0,0,0-1,1v4a1,1,0,0,0,1,1h6v6a1,1,0,0,0,1,1h4a1,1,0,0,0,1-1V18h6a1,1,0,0,0,1-1V13A1,1,0,0,0,24,12Zm-1,4H17a1,1,0,0,0-1,1v6H14V17a1,1,0,0,0-1-1H7V14h6a1,1,0,0,0,1-1V7h2v6a1,1,0,0,0,1,1h6Z"/><path d="M24,46H6a1,1,0,0,0-1,1v4a1,1,0,0,0,1,1H24a1,1,0,0,0,1-1V47A1,1,0,0,0,24,46Zm-1,4H7V48H23Z"/><path d="M58.12,42.71l-2.83-2.83a1,1,0,0,0-1.41,0L49,44.76l-4.88-4.88a1,1,0,0,0-1.41,0l-2.83,2.83a1,1,0,0,0,0,1.41L44.76,49l-4.88,4.88a1,1,0,0,0,0,1.41l2.83,2.83a1,1,0,0,0,1.41,0L49,53.24l4.88,4.88a1,1,0,0,0,1.41,0l2.83-2.83a1,1,0,0,0,0-1.41L53.24,49l4.88-4.88A1,1,0,0,0,58.12,42.71Zm-7,5.58a1,1,0,0,0,0,1.42L56,54.59,54.59,56l-4.88-4.88a1,1,0,0,0-1.42,0L43.41,56,42,54.59l4.88-4.88a1,1,0,0,0,0-1.42L42,43.41,43.41,42l4.88,4.88a1,1,0,0,0,1.42,0L54.59,42,56,43.41Z"/><path d="M58,12H40a1,1,0,0,0-1,1v4a1,1,0,0,0,1,1H58a1,1,0,0,0,1-1V13A1,1,0,0,0,58,12Zm-1,4H41V14H57Z"/><path d="M15,45a3,3,0,1,0-3-3A3,3,0,0,0,15,45Zm0-4a1,1,0,0,1,0,2A1,1,0,0,1,15,41Z"/><path d="M15,53a3,3,0,1,0,3,3A3,3,0,0,0,15,53Zm0,4a1,1,0,0,1,0-2A1,1,0,0,1,15,57Z"/></g></svg>