<?xml version="1.0" encoding="iso-8859-1"?>
<!-- Generator: Adobe Illustrator 19.0.0, SVG Export Plug-In . SVG Version: 6.00 Build 0)  -->
<svg version="1.1" id="Layer_1" xmlns="http://www.w3.org/2000/svg" xmlns:xlink="http://www.w3.org/1999/xlink" x="0px" y="0px"
	 viewBox="0 0 315.539 315.539" style="enable-background:new 0 0 315.539 315.539;" xml:space="preserve">
<g>
	<g>
		<g>
			<path d="M38.877,38.884C17.44,38.884,0,56.325,0,77.761c0,21.436,17.44,38.877,38.877,38.877s38.877-17.44,38.877-38.877
				S60.314,38.884,38.877,38.884z M38.877,101.638C25.711,101.638,15,90.927,15,77.761s10.711-23.877,23.877-23.877
				s23.877,10.711,23.877,23.877S52.043,101.638,38.877,101.638z"/>
			<path d="M38.877,131.65c-20.073,0-36.404,16.331-36.404,36.404v101.101c0,4.143,3.358,7.5,7.5,7.5h57.808
				c4.142,0,7.5-3.357,7.5-7.5V168.054C75.281,147.981,58.95,131.65,38.877,131.65z M60.281,261.655H17.473v-93.601
				c0-11.802,9.602-21.404,21.404-21.404c11.803,0,21.404,9.601,21.404,21.404V261.655z"/>
			<path d="M157.77,38.884c-21.437,0-38.877,17.44-38.877,38.877s17.44,38.877,38.877,38.877s38.877-17.44,38.877-38.877
				S179.207,38.884,157.77,38.884z M157.77,101.638c-13.166,0-23.877-10.711-23.877-23.877s10.711-23.877,23.877-23.877
				s23.877,10.711,23.877,23.877S170.936,101.638,157.77,101.638z"/>
			<path d="M157.769,131.65c-20.073,0-36.404,16.331-36.404,36.404v101.101c0,4.143,3.358,7.5,7.5,7.5h57.808
				c4.142,0,7.5-3.357,7.5-7.5V168.054C194.173,147.981,177.842,131.65,157.769,131.65z M179.174,261.655h-42.808v-93.601
				c0-11.802,9.602-21.404,21.404-21.404s21.404,9.601,21.404,21.404V261.655z"/>
			<path d="M276.662,116.638c21.437,0,38.877-17.44,38.877-38.877s-17.44-38.877-38.877-38.877s-38.877,17.44-38.877,38.877
				S255.225,116.638,276.662,116.638z M276.662,53.884c13.166,0,23.877,10.711,23.877,23.877s-10.711,23.877-23.877,23.877
				c-13.166,0-23.877-10.711-23.877-23.877S263.496,53.884,276.662,53.884z"/>
			<path d="M276.662,131.65c-20.073,0-36.404,16.331-36.404,36.404v101.101c0,4.143,3.358,7.5,7.5,7.5h57.808
				c4.142,0,7.5-3.357,7.5-7.5V168.054C313.066,147.981,296.735,131.65,276.662,131.65z M298.066,261.655h-42.808v-93.601
				c0-11.802,9.602-21.404,21.404-21.404s21.404,9.601,21.404,21.404V261.655z"/>
		</g>
	</g>
</g>
<g>
</g>
<g>
</g>
<g>
</g>
<g>
</g>
<g>
</g>
<g>
</g>
<g>
</g>
<g>
</g>
<g>
</g>
<g>
</g>
<g>
</g>
<g>
</g>
<g>
</g>
<g>
</g>
<g>
</g>
</svg>
