<svg xmlns="http://www.w3.org/2000/svg" viewBox="0 0 920.37 981.45"><defs><style>.cls-1,.cls-10,.cls-4{fill:none;}.cls-1{stroke:#eaf0ff;stroke-width:3px;}.cls-1,.cls-10{stroke-miterlimit:10;}.cls-2{fill:#d8dfff;}.cls-3{fill:#3b3744;}.cls-4{stroke:#1b3c87;stroke-linejoin:round;stroke-width:3.19px;}.cls-10,.cls-4{stroke-linecap:round;}.cls-5{fill:#fff;}.cls-6{fill:#eaf0ff;}.cls-7{fill:#46dbc9;}.cls-8{fill:#fb5d64;}.cls-9{fill:#1b3c87;}.cls-10{stroke:#fff;stroke-width:5px;}</style></defs><title>drawkit-grape-pack-illustration-16</title><g id="Layer_2" data-name="Layer 2"><g id="vector"><rect class="cls-1" x="273.74" y="263.18" width="216.45" height="406.62" transform="translate(-215.01 550.98) rotate(-58.75)"/><rect class="cls-2" x="120.07" y="966.46" width="800.3" height="9.99"/><rect class="cls-2" x="553.81" width="127.84" height="966.46"/><path class="cls-3" d="M455.65,445.91c-4.78,19.11-31.53,241.21-31,260.32C429.86,722,572.19,901.59,572.19,901.59l26.28-33.44-93.62-194.4L520.61,457Z"/><path class="cls-4" d="M422.18,668.75c-1.68,16.76-2.67,28.66-2.58,32.48C424.86,717,567.19,896.59,567.19,896.59l26.28-33.44-93.62-194.4L515.61,452l-65-11.07c-3,12-14.62,103.68-22.76,175.18"/><path class="cls-3" d="M488.65,898.77l20.06-432.28s118.79,14.38,118.79,22-94,410.24-94,410.24Z"/><path class="cls-5" d="M382,314c2.1,6.75,34.67,95.85,44.67,104s41.41,3.49,42.81,1.63,11.16-87.94,11.16-87.94l-34.89-2.32c-4.19,10.46-8.15,24-9.31,27.68-3-8.14-31.65-53.26-32.82-56.52"/><polygon class="cls-6" points="0 741.49 96.71 840.18 133.83 707.08 0 741.49"/><path class="cls-4" d="M427.86,345c-8.49-15.33-28.31-46.77-29.28-49.47"/><path class="cls-4" d="M407.25,386.57C413.17,400,418.5,410.42,421.63,413c10,8.14,42.81-10.4,44.21-12.26s9.76-74.05,9.76-74.05l-34.89-2.32c-2.89,7.2-5.66,15.84-7.49,21.74"/><path class="cls-4" d="M377,309c1.1,3.54,10.58,29.73,20.79,55"/><path class="cls-4" d="M543.63,823.74c-9.58,41.18-16.08,69-16.08,69h-44.9l11.92-256.9"/><path class="cls-4" d="M497.56,571.4l5.15-110.91s118.79,14.38,118.79,22c0,4.8-37.06,165.41-64.63,284.21"/><line class="cls-4" x1="560.37" y1="905.32" x2="607.88" y2="845.94"/><line class="cls-4" x1="585.75" y1="902.4" x2="615.45" y2="865.28"/><line class="cls-4" x1="571.28" y1="920.5" x2="574.69" y2="916.23"/><line class="cls-4" x1="466.22" y1="892.89" x2="543.26" y2="892.89"/><line class="cls-4" x1="464.76" y1="910.74" x2="541.8" y2="910.74"/><line class="cls-4" x1="557.39" y1="517.29" x2="582.09" y2="571.42"/><polygon class="cls-4" points="402.25 295.39 373.69 296.2 346.8 237.25 375.35 236.45 402.25 295.39"/><path class="cls-4" d="M377,309c-1-4-3.91-14.2-4.68-15.87"/><path class="cls-7" d="M462.94,346.54c-4.93-3.08-20.87-11.8-24.06-19,6.13-35.87,35.22-92.76,73.39-78.94C522.21,252,483,357.49,462.94,346.54Z"/><path class="cls-4" d="M447.64,282.06c13.3-26,34.5-47.59,59.63-38.49,9.94,3.4-29.31,108.92-49.33,98-4.93-3.08-20.87-11.8-24.06-19a127.23,127.23,0,0,1,3.25-13.93"/><path class="cls-7" d="M546.75,241.45c106.65,0,81.17,233.23,64.6,243.37s-145.52-10.14-159.7-29.18C446.13,400,470.52,241.45,546.75,241.45Z"/><path class="cls-4" d="M517.17,474.66c-33.06-6.21-64-15.25-70.52-24-2-20.27,0-54.17,6.93-89.09"/><path class="cls-4" d="M574.22,245.44c68.29,43,46.75,225.44,32.13,234.38-5.74,3.52-25,3.38-48.27.9"/><path class="cls-4" d="M464.69,319.16c13.59-40.63,35.13-75.26,66.48-81.66"/><path class="cls-5" d="M601.22,354c1.42,11.34,12.62,42.67,11,48.69S572.64,530,568,534.43c1.77,4.25,10.62,23,11,25.5,5.67-5.49,78.93-136.3,80-147.29s4.56-69.06,2.79-76.5S599.93,345.75,601.22,354Z"/><path class="cls-4" d="M575.58,496.44c-6.09,18-11.06,31.56-12.54,33,1.77,4.25,10.62,23,11,25.5,5.67-5.49,78.93-136.3,80-147.29.11-1.08.24-2.64.38-4.55"/><path class="cls-4" d="M656.58,365.58c.72-15.92,1.06-30.9.22-34.44-1.77-7.44-61.87,9.61-60.58,17.89,1.42,11.34,12.62,42.67,11,48.69-.83,3.14-11.51,37.44-22.22,70.26"/><path class="cls-7" d="M604.84,252.24c38.12-8.72,66.28,68.92,61.77,88.68-12.14,11.82-59.74,24.42-72.35,17.73C586,343.09,576.77,258.65,604.84,252.24Z"/><path class="cls-4" d="M582.29,277.34c2.24-15.53,7.51-27.81,17.55-30.1,38.12-8.72,66.28,68.92,61.77,88.68-12.14,11.82-59.74,24.42-72.35,17.73-3.38-6.37-6.92-24.32-8-43.72"/><path class="cls-5" d="M580,204.5c-1,10-5.87,43.36-4.74,52.94-4.84,4.22-31.21,7.62-39.55-1.65,3.5-9.17,4.74-27.4,4.32-35.43S580,204.5,580,204.5Z"/><path class="cls-4" d="M552.47,257.68c-8.16.18-16.68-1.31-20.8-5.89"/><path class="cls-4" d="M535.35,233.1a123.13,123.13,0,0,0,.64-16.74c-.41-8,40-15.86,40-15.86-1,10-5.87,43.36-4.74,52.94a16.12,16.12,0,0,1-6.06,2.58"/><ellipse class="cls-5" cx="543.14" cy="164.19" rx="61.88" ry="49.05" transform="translate(350.03 697.73) rotate(-86.92)"/><path class="cls-4" d="M569.15,110.3c12.5,11.8,20.11,31.12,19,52.52a76.94,76.94,0,0,1-3,17.53"/><path class="cls-4" d="M495.27,189.34a74.36,74.36,0,0,1-5.11-31.78c1.84-34.13,25.25-60.62,52.3-59.16a39.56,39.56,0,0,1,14.61,3.65"/><path class="cls-4" d="M551.35,219.7A39.7,39.7,0,0,1,535.82,222c-13.05-.7-24.56-7.77-32.77-18.74"/><path class="cls-8" d="M562.06,150c-.13,6,8.78,29.44,15.14,30.72,2.13.43,7.17,2.31,12.93,4.62a76.94,76.94,0,0,0,3-17.53c1.84-34.12-18.6-63-45.65-64.42-20.32-1.09-38.58,13.58-47.19,35.41C511.65,144.67,531.5,151.16,562.06,150Z"/><path class="cls-4" d="M524,162.93c0,3.71-6.4,17.42-11.77,17.42"/><ellipse class="cls-9" cx="506.31" cy="159.53" rx="3.26" ry="5.95"/><path class="cls-4" d="M529.66,200.5c3-.06,10.71-5.12,14.5-11"/><path class="cls-4" d="M518.15,141.86A151.66,151.66,0,0,0,557.06,145c0,2,.89,5.8,2.37,10.11"/><path class="cls-4" d="M556.43,101.76a39.65,39.65,0,0,0-14-3.36c-20.32-1.09-38.58,13.58-47.19,35.41a85.49,85.49,0,0,0,9.92,4.3"/><path class="cls-4" d="M585.13,180.35a76.94,76.94,0,0,0,3-17.53c1.12-20.83-6.06-39.69-18-51.55"/><circle class="cls-5" cx="575.2" cy="174.47" r="13.5"/><path class="cls-4" d="M563.71,160a13.48,13.48,0,1,1,6.57,23.86"/><polygon class="cls-3" points="407.25 300.39 378.69 301.2 351.8 242.25 380.35 241.45 407.25 300.39"/><polyline class="cls-5" points="612.96 879.65 639.86 912.18 662.04 916.55 617.21 981.45 574.96 981.45 601.02 966.56 597.14 930.55 582.61 917.58"/><polyline class="cls-4" points="635.27 943.06 612.21 976.45 569.96 976.45 596.02 961.56 592.14 925.55 577.61 912.58"/><polyline class="cls-4" points="607.96 874.65 634.86 907.18 657.04 911.55 651.26 919.91"/><polyline class="cls-5" points="531.59 915.74 526.89 951.35 534.83 981.45 434.16 981.45 486.92 940.99 487.08 915.74"/><polyline class="cls-4" points="472.66 943.09 481.92 935.99 482.08 910.74"/><polyline class="cls-4" points="524.29 928.15 521.89 946.35 529.83 976.45 429.16 976.45 453.35 957.89"/><path class="cls-5" d="M401.87,284.54c.17-6.26,4.91-24,0-25.7s-26.25-9.63-23.35-3,4.25,7.94,7.8,10.14"/><path class="cls-4" d="M397.87,280.54c.17-6.26,4.91-24,0-25.7s-26.25-9.63-23.35-3,4.25,7.94,7.8,10.14"/><path class="cls-5" d="M372.23,288.23c-11-5-20.62-20.42,0-14"/><path class="cls-5" d="M360.85,273.66c-7-6.25-9.39-14.58,6.72-9.57"/><path class="cls-4" d="M368.23,284.23c-11-5-20.62-20.42,0-14"/><path class="cls-4" d="M356.85,269.66c-7-6.25-9.39-14.58,6.72-9.57"/><path class="cls-2" d="M390,82.69H237.77A10.07,10.07,0,0,0,227.7,92.76v58.69a10.07,10.07,0,0,0,10.07,10.07h42.35L313.89,206l33.78-44.48H390a10.07,10.07,0,0,0,10.07-10.07V92.76A10.07,10.07,0,0,0,390,82.69Z"/><circle class="cls-5" cx="266.19" cy="121.62" r="16.28"/><line class="cls-10" x1="299.97" y1="110.95" x2="379.52" y2="110.95"/><line class="cls-10" x1="299.97" y1="129.77" x2="341.06" y2="129.77"/></g></g></svg>